<?xml version="1.0" encoding="utf-8"?>
<!-- Generator: Adobe Illustrator 18.0.0, SVG Export Plug-In . SVG Version: 6.00 Build 0)  -->
<!DOCTYPE svg PUBLIC "-//W3C//DTD SVG 1.1//EN" "http://www.w3.org/Graphics/SVG/1.1/DTD/svg11.dtd">
<svg version="1.1" id="Layer_1" xmlns="http://www.w3.org/2000/svg" xmlns:xlink="http://www.w3.org/1999/xlink" x="0px" y="0px"
	 viewBox="0 0 12.4 14.7" enable-background="new 0 0 12.4 14.7" xml:space="preserve">
<g>
	<path fill="#FFFFFF" d="M2,2h5.9L6.3,0.4c0,0-0.1,0-0.1-0.1L6.1,0.2c0,0-0.1-0.1-0.2-0.1C5.8,0.1,5.8,0,5.7,0H4.5h-4
		C0.3,0,0.2,0.1,0.1,0.2C0,0.3,0,0.4,0,0.6v10.3c0,0.1,0,0.2,0,0.2c0,0.1,0.1,0.1,0.1,0.2c0.1,0.1,0.2,0.1,0.2,0.2
		c0,0.1,0.1,0,0.2,0h1.4V2H2z"/>
	<g>
		<path fill="#FFFFFF" d="M3.2,3.9c0-0.2,0.1-0.3,0.2-0.4c0.1-0.1,0.2-0.2,0.4-0.2h4v4.6h4.6v6.3c0,0.1,0,0.2,0,0.2
			c0,0.1-0.1,0.1-0.1,0.2c-0.1,0.1-0.1,0.1-0.2,0.1s-0.1,0-0.2,0h-8c-0.1,0-0.2,0-0.2,0c-0.1,0-0.1-0.1-0.2-0.1
			c-0.1-0.1-0.1-0.1-0.1-0.2s0-0.1,0-0.2V3.9H3.2z M9,6.7V3.3c0.1,0,0.1,0.1,0.2,0.1c0,0,0.1,0,0.1,0.1l0.1,0.1l0.1,0.1L12,6.2
			l0.1,0.1c0.1,0,0.1,0,0.1,0.1c0,0,0.1,0.1,0.1,0.2c0,0.1,0.1,0.1,0.1,0.2H9V6.7z"/>
	</g>
</g>
</svg>
