<?xml version="1.0" encoding="utf-8"?>
<!-- Generator: Adobe Illustrator 16.0.0, SVG Export Plug-In . SVG Version: 6.00 Build 0)  -->
<!DOCTYPE svg PUBLIC "-//W3C//DTD SVG 1.1//EN" "http://www.w3.org/Graphics/SVG/1.1/DTD/svg11.dtd">
<svg version="1.1" id="Layer_1" xmlns="http://www.w3.org/2000/svg" xmlns:xlink="http://www.w3.org/1999/xlink" x="0px" y="0px"
	 width="24px" height="24px" viewBox="0 0 24 24" enable-background="new 0 0 24 24" xml:space="preserve">
<g>
	<g>
		<path fill="#666666" d="M6.486,18.084c-0.146,0-0.292-0.056-0.403-0.167c-0.223-0.223-0.223-0.584,0-0.807L17.108,6.085
			c0.223-0.223,0.584-0.223,0.807,0c0.223,0.222,0.223,0.583,0,0.806L6.889,17.917C6.778,18.028,6.632,18.084,6.486,18.084z"/>
	</g>
	<g>
		<path fill="#666666" d="M17.514,18.084c-0.146,0-0.292-0.056-0.403-0.167L6.084,6.89c-0.223-0.222-0.223-0.583,0-0.806
			c0.222-0.223,0.584-0.223,0.806,0L17.917,17.11c0.223,0.223,0.223,0.584,0,0.807C17.806,18.028,17.659,18.084,17.514,18.084z"/>
	</g>
</g>
</svg>
