<?xml version="1.0" encoding="utf-8"?>
<!-- Generator: Adobe Illustrator 16.0.0, SVG Export Plug-In . SVG Version: 6.00 Build 0)  -->
<!DOCTYPE svg PUBLIC "-//W3C//DTD SVG 1.1//EN" "http://www.w3.org/Graphics/SVG/1.1/DTD/svg11.dtd">
<svg version="1.1" id="Layer_1" xmlns="http://www.w3.org/2000/svg" xmlns:xlink="http://www.w3.org/1999/xlink" x="0px" y="0px"
	 width="24px" height="24px" viewBox="0 0 24 24" enable-background="new 0 0 24 24" xml:space="preserve">
<g>
	<g>
		<path fill="#666666" d="M12,18.868c-0.315,0-0.57-0.256-0.57-0.57V5.152c0-0.315,0.255-0.57,0.57-0.57s0.57,0.255,0.57,0.57
			v13.146C12.57,18.612,12.315,18.868,12,18.868z"/>
	</g>
	<g>
		<path fill="#666666" d="M11.999,19.419L11.999,19.419c-0.151,0-0.296-0.061-0.403-0.167l-5.991-5.994
			c-0.222-0.223-0.222-0.584,0-0.807c0.223-0.222,0.583-0.222,0.806,0l5.588,5.59l5.59-5.59c0.223-0.223,0.584-0.222,0.807,0
			c0.223,0.223,0.223,0.584,0,0.807l-5.993,5.994C12.295,19.358,12.15,19.419,11.999,19.419z"/>
	</g>
</g>
</svg>
