<?xml version="1.0" encoding="utf-8"?>
<!-- Generator: Adobe Illustrator 16.0.0, SVG Export Plug-In . SVG Version: 6.00 Build 0)  -->
<!DOCTYPE svg PUBLIC "-//W3C//DTD SVG 1.1//EN" "http://www.w3.org/Graphics/SVG/1.1/DTD/svg11.dtd">
<svg version="1.1" id="Layer_1" xmlns="http://www.w3.org/2000/svg" xmlns:xlink="http://www.w3.org/1999/xlink" x="0px" y="0px"
	 width="24px" height="24px" viewBox="0 0 24 24" enable-background="new 0 0 24 24" xml:space="preserve">
<g>
	<g>
		<path fill="#666666" d="M14.995,19.901H9.006c-1.22,0-2.212-0.993-2.212-2.213V7.31c0-0.315,0.255-0.57,0.57-0.57
			s0.57,0.255,0.57,0.57v10.379c0,0.592,0.481,1.072,1.073,1.072h5.989c0.591,0,1.071-0.48,1.071-1.072V7.31
			c0-0.315,0.256-0.57,0.57-0.57s0.57,0.255,0.57,0.57v10.379C17.207,18.908,16.215,19.901,14.995,19.901z"/>
	</g>
	<g>
		<path fill="#666666" d="M14.258,7.624c-0.314,0-0.57-0.255-0.57-0.57V5.979c0-0.408-0.331-0.741-0.738-0.741h-1.896
			c-0.408,0-0.741,0.333-0.741,0.741v1.074c0,0.315-0.255,0.57-0.57,0.57s-0.57-0.255-0.57-0.57V5.979c0-1.037,0.843-1.88,1.88-1.88
			h1.896c1.036,0,1.879,0.843,1.879,1.88v1.074C14.828,7.369,14.572,7.624,14.258,7.624z"/>
	</g>
	<g>
		<path fill="#666666" d="M18.209,7.766H5.791c-0.315,0-0.57-0.255-0.57-0.57s0.255-0.57,0.57-0.57h12.418
			c0.314,0,0.57,0.255,0.57,0.57S18.523,7.766,18.209,7.766z"/>
	</g>
	<g>
		<rect x="10.021" y="6.94" fill="#666666" width="1.14" height="12.191"/>
	</g>
	<g>
		<rect x="12.839" y="6.94" fill="#666666" width="1.14" height="12.191"/>
	</g>
</g>
</svg>
