<?xml version="1.0" encoding="utf-8"?>
<!-- Generator: Adobe Illustrator 16.0.0, SVG Export Plug-In . SVG Version: 6.00 Build 0)  -->
<!DOCTYPE svg PUBLIC "-//W3C//DTD SVG 1.1//EN" "http://www.w3.org/Graphics/SVG/1.1/DTD/svg11.dtd">
<svg version="1.1" id="Layer_1" xmlns="http://www.w3.org/2000/svg" xmlns:xlink="http://www.w3.org/1999/xlink" x="0px" y="0px"
	 width="160px" height="160px" viewBox="0 0 160 160" enable-background="new 0 0 160 160" xml:space="preserve">
<g>
	<rect y="0.001" fill="#B1B5BB" width="160" height="159.997"/>
	<g>
		<polygon fill="#FFFFFF" points="137.539,70.508 22.467,70.508 44.491,45.037 115.509,45.037 		"/>
		<path fill="#FFFFFF" d="M22.467,78.366v36.491h115.072V78.366H22.467z M38.964,103.555c-3.799,0-6.881-3.086-6.881-6.895
			c0-3.803,3.083-6.875,6.881-6.875c3.805,0,6.885,3.072,6.885,6.875C45.849,100.469,42.769,103.555,38.964,103.555z
			 M60.305,103.555c-3.802,0-6.885-3.086-6.885-6.895c0-3.803,3.083-6.875,6.885-6.875c3.799,0,6.881,3.072,6.881,6.875
			C67.186,100.469,64.104,103.555,60.305,103.555z"/>
	</g>
</g>
</svg>
