<?xml version="1.0" encoding="utf-8"?>
<!-- Generator: Adobe Illustrator 16.0.0, SVG Export Plug-In . SVG Version: 6.00 Build 0)  -->
<!DOCTYPE svg PUBLIC "-//W3C//DTD SVG 1.1//EN" "http://www.w3.org/Graphics/SVG/1.1/DTD/svg11.dtd">
<svg version="1.1" id="Layer_1" xmlns="http://www.w3.org/2000/svg" xmlns:xlink="http://www.w3.org/1999/xlink" x="0px" y="0px"
	 width="33px" height="33px" viewBox="-1 -1 33 33" enable-background="new -1 -1 33 33" xml:space="preserve">
<circle opacity="0.7" enable-background="new    " cx="15.5" cy="15.5" r="15"/>
<g>
	<path fill="#FFFFFF" d="M15.5,31.5c-8.822,0-16-7.178-16-16c0-8.822,7.178-16,16-16c8.822,0,16,7.178,16,16
		C31.5,24.322,24.322,31.5,15.5,31.5z M15.5,1.5c-7.72,0-14,6.28-14,14c0,7.721,6.28,14,14,14c7.721,0,14-6.279,14-14
		C29.5,7.78,23.221,1.5,15.5,1.5z"/>
</g>
<g>
	<path fill="#FFFFFF" d="M13.984,23.09l10.375-10.385c0.279-0.279,0.445-0.676,0.502-1.193c0.058-0.516-0.012-1.064-0.207-1.646
		c-0.194-0.58-0.487-1.064-0.881-1.455L22.564,7.2c-0.393-0.389-0.877-0.682-1.457-0.877c-0.578-0.195-1.129-0.266-1.645-0.209
		c-0.518,0.057-0.915,0.225-1.191,0.502L7.934,17.037l-1.815,7.867L13.984,23.09L13.984,23.09L13.984,23.09z M20.428,11.475
		c0.366,0.379,0.612,0.857,0.737,1.438c0.126,0.58,0.101,1.053-0.076,1.418c0,0.012,0.004,0.031,0.011,0.057l0.01,0.039
		l-5.818,5.865c-0.238-0.276-0.426-0.638-0.559-1.078c-0.132-0.44-0.202-0.846-0.207-1.211c-0.008-0.364,0.016-0.688,0.066-0.965
		l5.666-5.713L20.428,11.475L20.428,11.475L20.428,11.475z M18.727,7.693c0.303-0.328,0.801-0.449,1.492-0.359
		c0.694,0.088,1.26,0.352,1.702,0.793l0.927,0.926c0.44,0.441,0.705,1.008,0.793,1.703c0.088,0.691-0.031,1.189-0.359,1.492
		l-0.87,0.891c-0.114-0.947-0.466-1.715-1.058-2.309l-1.209-1.209c-0.595-0.592-1.361-0.938-2.309-1.039L18.727,7.693L18.727,7.693
		L18.727,7.693z M16.324,10.094c0.304-0.316,0.798-0.428,1.484-0.34c0.686,0.088,1.25,0.354,1.691,0.793l0.15,0.15l-5.667,5.737
		c-0.278,0.049-0.599,0.069-0.965,0.065c-0.365-0.006-0.77-0.076-1.21-0.209c-0.441-0.131-0.801-0.316-1.078-0.559L16.324,10.094
		L16.324,10.094L16.324,10.094z M8.991,17.492l1.04-1.039c0.454,0.34,0.991,0.617,1.616,0.832s1.201,0.328,1.73,0.34
		c0,0.529,0.11,1.113,0.331,1.75c0.22,0.637,0.501,1.18,0.841,1.635l-1.021,1.02l-2.875,0.552c-0.202-0.58-0.476-1.043-0.823-1.392
		c-0.347-0.348-0.81-0.621-1.39-0.823L8.991,17.492L8.991,17.492L8.991,17.492z"/>
</g>
</svg>
