<?xml version="1.0" encoding="utf-8"?>
<!-- Generator: Adobe Illustrator 16.0.0, SVG Export Plug-In . SVG Version: 6.00 Build 0)  -->
<!DOCTYPE svg PUBLIC "-//W3C//DTD SVG 1.1//EN" "http://www.w3.org/Graphics/SVG/1.1/DTD/svg11.dtd">
<svg version="1.1" id="Layer_1" xmlns="http://www.w3.org/2000/svg" xmlns:xlink="http://www.w3.org/1999/xlink" x="0px" y="0px"
	 width="24px" height="24px" viewBox="0 0 24 24" enable-background="new 0 0 24 24" xml:space="preserve">
<g>
	<g>
		<path fill="#666666" d="M8.496,19.109c-0.09,0-0.18-0.021-0.262-0.064c-0.189-0.098-0.308-0.293-0.308-0.506V9.992L3.192,5.892
			c-0.18-0.156-0.244-0.407-0.161-0.63s0.296-0.371,0.534-0.371h12.697c0.238,0,0.451,0.147,0.534,0.371s0.019,0.474-0.161,0.63
			L11.9,9.992v6.547c0,0.186-0.09,0.359-0.241,0.466l-2.834,2C8.727,19.074,8.612,19.109,8.496,19.109z M5.094,6.031l3.775,3.271
			c0.125,0.108,0.197,0.265,0.197,0.431v7.708l1.694-1.195V9.732c0-0.166,0.072-0.323,0.197-0.431l3.775-3.271H5.094z"/>
	</g>
	<g>
		<g>
			<path fill="#666666" d="M17.439,18.685h-0.541c-0.51,0-0.835-0.429-0.931-0.854l-0.12-0.476c-0.057-0.022-0.113-0.046-0.169-0.07
				l-0.437,0.277c-0.365,0.255-0.966,0.238-1.282-0.076l-0.384-0.384c-0.358-0.359-0.287-0.893-0.056-1.261l0.284-0.474
				c-0.011-0.022-0.02-0.046-0.029-0.069l-0.498-0.123c-0.417-0.097-0.845-0.423-0.845-0.931v-0.541c0-0.525,0.446-0.89,0.866-0.966
				l0.465-0.104c0.013-0.033,0.026-0.065,0.041-0.099l-0.287-0.477c-0.227-0.363-0.298-0.896,0.059-1.255l0.385-0.383
				c0.314-0.316,0.9-0.343,1.295-0.069l0.423,0.268c0.055-0.024,0.109-0.047,0.165-0.069l0.123-0.488
				c0.094-0.415,0.419-0.843,0.929-0.843h0.541c0.525,0,0.89,0.446,0.966,0.865l0.105,0.474c0.042,0.017,0.083,0.034,0.124,0.053
				l0.422-0.269c0.352-0.249,0.963-0.242,1.282,0.079l0.382,0.379c0.359,0.362,0.288,0.895,0.059,1.263L20.512,12.5
				c0.02,0.045,0.038,0.089,0.056,0.134l0.48,0.106c0.404,0.073,0.851,0.438,0.851,0.963v0.541c0,0.508-0.428,0.834-0.852,0.932
				l-0.492,0.122c-0.014,0.035-0.028,0.07-0.043,0.105l0.267,0.443c0.228,0.362,0.299,0.896-0.06,1.255l-0.386,0.384
				c-0.321,0.319-0.906,0.338-1.294,0.067l-0.409-0.26c-0.039,0.017-0.079,0.033-0.119,0.05l-0.108,0.49
				C18.329,18.237,17.965,18.685,17.439,18.685z M15.652,16.426c0.064,0,0.128,0.016,0.187,0.047
				c0.149,0.079,0.306,0.145,0.468,0.196c0.131,0.043,0.231,0.149,0.265,0.283l0.174,0.692c0.029,0.13,0.102,0.239,0.153,0.239
				h0.541c0.076,0,0.161-0.115,0.179-0.209l0.159-0.721c0.031-0.139,0.133-0.25,0.269-0.294c0.147-0.048,0.29-0.107,0.425-0.179
				c0.126-0.066,0.28-0.059,0.4,0.017l0.611,0.389c0.105,0.073,0.238,0.081,0.287,0.031l0.384-0.383
				c0.032-0.032,0.016-0.155-0.057-0.271l-0.381-0.633c-0.071-0.118-0.076-0.266-0.013-0.389c0.066-0.13,0.123-0.267,0.169-0.407
				c0.043-0.131,0.15-0.23,0.283-0.264l0.705-0.175c0.128-0.029,0.237-0.102,0.237-0.153v-0.541c0-0.076-0.114-0.162-0.208-0.179
				l-0.711-0.157c-0.139-0.031-0.251-0.134-0.294-0.27c-0.049-0.15-0.11-0.297-0.183-0.438c-0.063-0.123-0.058-0.27,0.014-0.389
				l0.377-0.625c0.069-0.111,0.096-0.242,0.059-0.279l-0.382-0.379c-0.093-0.094-0.208-0.025-0.271,0.019l-0.625,0.398
				c-0.121,0.076-0.272,0.083-0.399,0.018c-0.139-0.072-0.282-0.134-0.433-0.183c-0.135-0.043-0.236-0.155-0.268-0.293l-0.156-0.703
				c-0.021-0.117-0.113-0.224-0.182-0.224h-0.541c-0.052,0-0.124,0.109-0.151,0.23l-0.177,0.703
				c-0.033,0.133-0.133,0.24-0.264,0.283c-0.161,0.052-0.317,0.118-0.463,0.195c-0.126,0.067-0.281,0.061-0.401-0.016l-0.625-0.396
				c-0.087-0.061-0.202-0.12-0.287-0.033l-0.385,0.383c-0.035,0.036-0.009,0.167,0.058,0.273l0.399,0.665
				c0.07,0.117,0.076,0.263,0.015,0.385c-0.064,0.13-0.123,0.265-0.167,0.405c-0.043,0.137-0.155,0.24-0.295,0.271l-0.695,0.154
				c-0.109,0.02-0.224,0.105-0.224,0.182v0.541c0,0.047,0.099,0.122,0.231,0.152l0.711,0.176c0.134,0.034,0.241,0.134,0.284,0.266
				c0.042,0.131,0.096,0.256,0.156,0.379c0.06,0.122,0.054,0.266-0.017,0.382l-0.396,0.66c-0.076,0.121-0.093,0.244-0.06,0.276
				l0.384,0.384c0.106,0.105,0.209,0.021,0.273-0.023l0.638-0.406C15.503,16.447,15.577,16.426,15.652,16.426z"/>
		</g>
		<g>
			<path fill="#666666" d="M17.113,15.721c-0.94,0-1.705-0.765-1.705-1.704s0.765-1.704,1.705-1.704
				c0.938,0,1.703,0.764,1.703,1.704S18.052,15.721,17.113,15.721z M17.113,13.113c-0.499,0-0.904,0.405-0.904,0.903
				s0.405,0.903,0.904,0.903c0.498,0,0.902-0.405,0.902-0.903S17.611,13.113,17.113,13.113z"/>
		</g>
	</g>
</g>
</svg>
