<?xml version="1.0" encoding="utf-8"?>
<!-- Generator: Adobe Illustrator 16.0.0, SVG Export Plug-In . SVG Version: 6.00 Build 0)  -->
<!DOCTYPE svg PUBLIC "-//W3C//DTD SVG 1.1//EN" "http://www.w3.org/Graphics/SVG/1.1/DTD/svg11.dtd">
<svg version="1.1" id="Layer_1" xmlns="http://www.w3.org/2000/svg" xmlns:xlink="http://www.w3.org/1999/xlink" x="0px" y="0px"
	 width="32px" height="32px" viewBox="0 0 32 32" enable-background="new 0 0 32 32" xml:space="preserve">
<g>
	<circle opacity="0.5" fill="#1C9DD7" enable-background="new    " cx="16" cy="16" r="15"/>
	<g>
		<path fill="#FFFFFF" d="M14.484,23.591l10.375-10.386c0.279-0.278,0.445-0.675,0.502-1.192c0.057-0.517-0.014-1.065-0.209-1.646
			c-0.193-0.58-0.487-1.064-0.879-1.456L23.063,7.7c-0.391-0.388-0.875-0.682-1.457-0.876c-0.578-0.196-1.127-0.267-1.644-0.21
			c-0.517,0.058-0.915,0.225-1.192,0.502L8.434,17.538l-1.815,7.866L14.484,23.591L14.484,23.591L14.484,23.591z M20.928,11.976
			c0.365,0.379,0.612,0.857,0.736,1.437c0.126,0.58,0.102,1.053-0.075,1.418c0,0.013,0.003,0.031,0.009,0.058l0.01,0.038
			l-5.817,5.865c-0.238-0.276-0.426-0.638-0.558-1.078s-0.202-0.845-0.208-1.211c-0.007-0.364,0.017-0.687,0.066-0.964l5.667-5.713
			L20.928,11.976L20.928,11.976L20.928,11.976z M19.225,8.193c0.303-0.327,0.801-0.448,1.494-0.359
			c0.694,0.088,1.26,0.353,1.703,0.793l0.926,0.926c0.441,0.441,0.707,1.009,0.793,1.703c0.088,0.692-0.031,1.19-0.359,1.493
			l-0.871,0.89c-0.114-0.946-0.467-1.714-1.059-2.308l-1.207-1.209c-0.594-0.593-1.361-0.938-2.309-1.039L19.225,8.193L19.225,8.193
			L19.225,8.193z M16.824,10.595c0.303-0.316,0.797-0.428,1.484-0.34c0.687,0.088,1.252,0.352,1.691,0.793l0.15,0.15l-5.667,5.735
			c-0.278,0.049-0.599,0.07-0.965,0.065c-0.365-0.006-0.77-0.075-1.21-0.208c-0.441-0.132-0.801-0.317-1.078-0.559L16.824,10.595
			L16.824,10.595L16.824,10.595z M9.491,17.993l1.04-1.039c0.454,0.34,0.992,0.616,1.617,0.832c0.625,0.215,1.201,0.327,1.73,0.34
			c0,0.528,0.11,1.113,0.331,1.749c0.22,0.637,0.501,1.182,0.841,1.635l-1.021,1.021l-2.875,0.55
			c-0.202-0.58-0.476-1.043-0.823-1.392c-0.347-0.348-0.81-0.621-1.39-0.822L9.491,17.993L9.491,17.993L9.491,17.993z"/>
	</g>
</g>
</svg>
