<?xml version="1.0" encoding="utf-8"?>
<!-- Generator: Adobe Illustrator 16.0.0, SVG Export Plug-In . SVG Version: 6.00 Build 0)  -->
<!DOCTYPE svg PUBLIC "-//W3C//DTD SVG 1.1//EN" "http://www.w3.org/Graphics/SVG/1.1/DTD/svg11.dtd">
<svg version="1.1" id="Layer_1" xmlns="http://www.w3.org/2000/svg" xmlns:xlink="http://www.w3.org/1999/xlink" x="0px" y="0px"
	 width="24px" height="24px" viewBox="0 0 24 24" enable-background="new 0 0 24 24" xml:space="preserve">
<g>
	<path fill="#666666" d="M10.583,19.109c-0.09,0-0.18-0.021-0.262-0.064c-0.189-0.098-0.308-0.293-0.308-0.506V9.992l-4.734-4.1
		c-0.18-0.156-0.244-0.407-0.161-0.63s0.296-0.371,0.534-0.371h12.695c0.238,0,0.451,0.147,0.534,0.371s0.019,0.474-0.161,0.63
		l-4.733,4.1v6.547c0,0.186-0.09,0.359-0.241,0.466l-2.834,2C10.813,19.074,10.699,19.109,10.583,19.109z M7.181,6.031l3.775,3.27
		c0.125,0.108,0.197,0.265,0.197,0.431v7.708l1.694-1.195V9.732c0-0.166,0.072-0.323,0.197-0.431l3.775-3.27H7.181z"/>
</g>
</svg>
