<?xml version="1.0" encoding="utf-8"?>
<!-- Generator: Adobe Illustrator 18.0.0, SVG Export Plug-In . SVG Version: 6.00 Build 0)  -->
<!DOCTYPE svg PUBLIC "-//W3C//DTD SVG 1.1//EN" "http://www.w3.org/Graphics/SVG/1.1/DTD/svg11.dtd">
<svg version="1.1" id="Layer_1" xmlns="http://www.w3.org/2000/svg" xmlns:xlink="http://www.w3.org/1999/xlink" x="0px" y="0px"
	 viewBox="0 0 18 18.01723" enable-background="new 0 0 18 18.01723" xml:space="preserve">
<g>
	<path fill="#ED1C24" d="M8.99139,0c0.83218,0,1.63206,0.10766,2.39856,0.32297s1.48134,0.51836,2.1445,0.90861
		c0.66316,0.39052,1.26872,0.86124,1.81723,1.41244c0.54797,0.5512,1.01896,1.15837,1.41244,1.82153
		c0.39294,0.66316,0.69761,1.37799,0.91292,2.1445S18,8.17617,18,9.00861c0,0.82679-0.10765,1.6221-0.32297,2.38565
		c-0.21531,0.76382-0.51998,1.47865-0.91292,2.1445c-0.39348,0.66585-0.86447,1.27464-1.41244,1.82584
		c-0.5485,0.5512-1.15407,1.02192-1.81723,1.41244c-0.66316,0.39025-1.37799,0.69465-2.1445,0.91292
		c-0.76651,0.218-1.56639,0.32727-2.39856,0.32727c-0.83272,0-1.63206-0.10927-2.39856-0.32727
		c-0.76651-0.21827-1.48026-0.52267-2.14019-0.91292c-0.66047-0.39052-1.26603-0.86124-1.81722-1.41244
		s-1.02219-1.15999-1.41244-1.82584c-0.39079-0.66585-0.69222-1.38068-0.90431-2.1445C0.10604,10.63071,0,9.83541,0,9.00861
		c0-0.83245,0.10604-1.63206,0.31866-2.39856c0.21208-0.76651,0.51352-1.48134,0.90431-2.1445
		c0.39025-0.66316,0.86124-1.27034,1.41244-1.82153S3.79217,1.6221,4.45263,1.23158c0.65993-0.39025,1.37368-0.6933,2.14019-0.90861
		S8.15867,0,8.99139,0z M5.77033,13.60766L9,10.37799l3.24689,3.22966l1.36077-1.36938L10.3866,9.00861l3.22105-3.22967
		l-1.36077-1.37799L9,7.63923L5.77033,4.40096L4.40096,5.77895l3.22966,3.22967l-3.22966,3.22105L5.77033,13.60766z"/>
</g>
</svg>
