<?xml version="1.0" encoding="utf-8"?>
<!-- Generator: Adobe Illustrator 18.1.1, SVG Export Plug-In . SVG Version: 6.00 Build 0)  -->
<svg version="1.1" id="Layer_1" xmlns="http://www.w3.org/2000/svg" xmlns:xlink="http://www.w3.org/1999/xlink" x="0px" y="0px"
	 viewBox="0 -2.9 30 25.5" enable-background="new 0 -2.9 30 25.5" xml:space="preserve">
<g>
	<path fill="#FFFFFF" d="M27.4,9.9l-5.7-3.3v1.7h-0.6c-2.5,0-3.7-1.2-5.2-2.7C14.3,4,12.4,2.1,8.8,2.1H8.4
		C7.8,1.2,6.8,0.6,5.7,0.6C4,0.6,2.6,2,2.6,3.7S4,6.8,5.7,6.8c1.2,0,2.1-0.6,2.7-1.6h0.4c2.4,0,3.6,1.2,5.1,2.6
		c0.7,0.7,1.4,1.4,2.4,2.1c-0.8,0.6-1.6,1.3-2.2,2c-1.5,1.5-2.7,2.7-5.2,2.7H8.4C7.8,13.6,6.8,13,5.7,13c-1.7,0-3.1,1.4-3.1,3.1
		s1.4,3.1,3.1,3.1c1.2,0,2.1-0.6,2.7-1.6h0.4c3.7,0,5.8-2,7.4-3.6c1.5-1.5,2.7-2.6,5.1-2.6h0.6v1.7L27.4,9.9z M5.7,5.5
		c-1,0-1.9-0.8-1.9-1.9s0.8-1.9,1.9-1.9s1.9,0.8,1.9,1.9S6.7,5.5,5.7,5.5z M5.7,18c-1,0-1.9-0.8-1.9-1.9s0.8-1.9,1.9-1.9
		s1.9,0.8,1.9,1.9S6.7,18,5.7,18z"/>
</g>
</svg>
