<?xml version="1.0" encoding="utf-8"?>
<!-- Generator: Adobe Illustrator 18.1.1, SVG Export Plug-In . SVG Version: 6.00 Build 0)  -->
<svg version="1.1" id="Layer_1" xmlns="http://www.w3.org/2000/svg" xmlns:xlink="http://www.w3.org/1999/xlink" x="0px" y="0px"
	 viewBox="0 -2.9 30 25.5" enable-background="new 0 -2.9 30 25.5" xml:space="preserve">
<g>
	<path fill="#FFFFFF" d="M22.3,5.9l3.2-3.1l0.2,0c0.1,0.2,0.1,0.3,0.2,0.5C26,3.5,26,3.7,26.1,3.8
		c0,0.2,0.1,0.4,0.1,0.6c0,0.8-0.1,1.5-0.4,2.1c-0.3,0.7-0.7,1.2-1.3,1.7c-0.5,0.5-1.2,0.9-2,1.2c-0.8,0.3-1.6,0.4-2.5,0.5
		c-0.2,0-0.3,0-0.5,0c-0.2,0-0.3-0.1-0.5-0.1L8.4,20c-0.3,0.3-0.6,0.5-0.9,0.6c-0.3,0.1-0.6,0.2-0.9,0.2c-0.3,0-0.7-0.1-1-0.2
		c-0.3-0.2-0.6-0.4-0.9-0.6c-0.3-0.3-0.5-0.6-0.7-0.9c-0.2-0.3-0.3-0.7-0.3-1.1c0-0.3,0.1-0.6,0.2-0.8c0.1-0.3,0.3-0.6,0.6-0.8L15,6
		V4.5c0-0.8,0.1-1.5,0.4-2.1c0.3-0.7,0.7-1.2,1.2-1.7c0.5-0.5,1.1-0.9,1.8-1.2C19.1-0.8,19.9-1,20.6-1c0.2,0,0.4,0,0.6,0
		c0.2,0,0.4,0.1,0.5,0.1c0.2,0,0.3,0.1,0.5,0.2l0,0.3L19,2.7l0.6,2.7L22.3,5.9z M6,18.7c0.1,0.1,0.2,0.2,0.4,0.2
		C6.5,18.9,6.7,19,6.8,19c0.3,0,0.5-0.1,0.7-0.3c0.1-0.1,0.2-0.2,0.2-0.3c0.1-0.1,0.1-0.3,0.1-0.4c0-0.1,0-0.3-0.1-0.4
		c-0.1-0.1-0.1-0.2-0.2-0.3c-0.2-0.2-0.5-0.3-0.7-0.3c-0.3,0-0.5,0.1-0.7,0.3c-0.2,0.2-0.3,0.5-0.3,0.7c0,0.1,0,0.3,0.1,0.4
		C5.9,18.4,5.9,18.6,6,18.7z"/>
</g>
</svg>
