<?xml version="1.0" encoding="utf-8"?>
<!-- Generator: Adobe Illustrator 19.1.0, SVG Export Plug-In . SVG Version: 6.00 Build 0)  -->
<svg version="1.1" id="Layer_1" xmlns="http://www.w3.org/2000/svg" xmlns:xlink="http://www.w3.org/1999/xlink" x="0px" y="0px"
	 viewBox="0 5.7 30 20.5" style="enable-background:new 0 5.7 30 20.5;" xml:space="preserve">

    <path fill="#FFFFFF" d="M3,19.8c0.6,0,1.1,0.4,1.3,0.9h8.9l2-2h5.8l3.3-3.3H30V5.7H0V14h4.6l3.3-3.3h9.2c0.2-0.5,0.7-0.8,1.3-0.8
	c0.8,0,1.4,0.7,1.4,1.4c0,0.8-0.7,1.4-1.4,1.4c-0.6,0-1.1-0.4-1.3-0.8H8.5L6.4,14h0.7l2,2h1.1c0.2-0.6,0.7-1,1.4-1
	c0.8,0,1.4,0.7,1.4,1.4c0,0.8-0.7,1.4-1.4,1.4c-0.5,0-1-0.3-1.3-0.7H8.6l-2-2H5.1H4.9H0v11.1h30v-9.7h-5.3l-2.1,2.1h0.7l2,2h1.1
	c0.2-0.6,0.7-1,1.4-1c0.8,0,1.4,0.7,1.4,1.4c0,0.8-0.7,1.4-1.4,1.4c-0.5,0-1-0.3-1.3-0.7h-1.7l-2-2h-1.4h-0.2h-5.5l-2,2H4.3
	c-0.2,0.5-0.7,0.8-1.3,0.8c-0.8,0-1.4-0.7-1.4-1.4S2.2,19.8,3,19.8z M7.6,9.3c-0.5,0-0.8-0.4-0.8-0.8c0-0.5,0.4-0.8,0.8-0.8
	S8.5,8,8.5,8.4C8.5,8.9,8.1,9.3,7.6,9.3z M19.6,22.7c0.5,0,0.8,0.4,0.8,0.8c0,0.5-0.4,0.8-0.8,0.8c-0.5,0-0.8-0.4-0.8-0.8
	C18.7,23.1,19.1,22.7,19.6,22.7z" />
</svg>
