<?xml version="1.0" encoding="utf-8"?>
<!-- Generator: Adobe Illustrator 16.0.0, SVG Export Plug-In . SVG Version: 6.00 Build 0)  -->
<!DOCTYPE svg PUBLIC "-//W3C//DTD SVG 1.1//EN" "http://www.w3.org/Graphics/SVG/1.1/DTD/svg11.dtd">
<svg version="1.1" id="Layer_1" xmlns="http://www.w3.org/2000/svg" xmlns:xlink="http://www.w3.org/1999/xlink" x="0px" y="0px"
	 width="24px" height="24px" viewBox="0 0 24 24" enable-background="new 0 0 24 24" xml:space="preserve">
<rect x="0" y="0" fill="#B1B5BB" width="24" height="24"/>
<path fill-rule="evenodd" clip-rule="evenodd" fill="#FFFFFF" d="M17.287,12.481c-0.13-0.214-0.405-0.272-0.617-0.143l-1.511,0.939
	l-2.209-1.283l2.209-1.272l1.511,0.939c0.071,0.047,0.153,0.071,0.238,0.071c0.152,0,0.296-0.071,0.379-0.214
	c0.13-0.214,0.071-0.487-0.142-0.618l-1.105-0.689l1.045-0.606c0.215-0.118,0.285-0.404,0.167-0.618
	c-0.118-0.214-0.403-0.285-0.618-0.167l-1.046,0.606l-0.035-1.294c-0.012-0.25-0.214-0.44-0.464-0.44
	c-0.25,0.013-0.438,0.214-0.438,0.464l0.059,1.783l-2.212,1.283v-2.65l1.571-0.843c0.213-0.119,0.295-0.392,0.188-0.606
	c-0.119-0.213-0.393-0.297-0.604-0.19L12.497,7.55V6.433c0-0.25-0.201-0.452-0.45-0.452s-0.452,0.202-0.452,0.452V7.55l-1.15-0.619
	c-0.215-0.119-0.489-0.036-0.607,0.19C9.719,7.336,9.8,7.609,10.025,7.728l1.569,0.843v2.65L9.304,9.902L9.361,8.12
	c0.012-0.25-0.19-0.452-0.44-0.463C8.671,7.645,8.47,7.846,8.459,8.096L8.411,9.392l-0.963-0.56C7.233,8.714,6.96,8.785,6.829,8.999
	C6.712,9.213,6.783,9.487,6.995,9.617l0.964,0.559l-1.104,0.689c-0.213,0.132-0.274,0.405-0.143,0.619
	c0.083,0.143,0.225,0.213,0.38,0.213c0.083,0,0.165-0.023,0.237-0.071l1.509-0.939l2.294,1.319l-2.271,1.319l-1.509-0.939
	c-0.214-0.13-0.487-0.071-0.617,0.143c-0.132,0.214-0.07,0.486,0.143,0.617l1.104,0.689l-0.962,0.559
	c-0.215,0.119-0.285,0.404-0.166,0.617c0.082,0.143,0.237,0.226,0.393,0.226c0.07,0,0.153-0.023,0.225-0.059l0.963-0.559
	l0.048,1.295c0.011,0.237,0.202,0.439,0.45,0.439h0.014c0.248-0.012,0.438-0.214,0.438-0.463l-0.059-1.782l2.294-1.32v2.556
	l-1.571,0.843c-0.212,0.119-0.295,0.393-0.187,0.607c0.081,0.154,0.236,0.236,0.39,0.236c0.072,0,0.143-0.012,0.216-0.047
	l1.152-0.617v1.199c0,0.25,0.201,0.453,0.45,0.453c0.251,0,0.453-0.203,0.453-0.453v-1.212l1.151,0.618
	c0.071,0.035,0.142,0.047,0.215,0.047c0.153,0,0.32-0.083,0.392-0.237c0.117-0.214,0.035-0.487-0.191-0.605l-1.566-0.844v-2.556
	l2.208,1.285l-0.06,1.781c-0.01,0.25,0.192,0.451,0.44,0.463h0.014c0.234,0,0.438-0.189,0.448-0.439l0.05-1.295l1.046,0.606
	c0.071,0.035,0.142,0.059,0.226,0.059c0.153,0,0.309-0.083,0.392-0.226c0.118-0.213,0.047-0.486-0.167-0.617l-1.045-0.606
	l1.105-0.688C17.358,12.969,17.417,12.695,17.287,12.481L17.287,12.481z"/>
</svg>
