<?xml version="1.0" encoding="utf-8"?>
<!-- Generator: Adobe Illustrator 18.0.0, SVG Export Plug-In . SVG Version: 6.00 Build 0)  -->
<!DOCTYPE svg PUBLIC "-//W3C//DTD SVG 1.1//EN" "http://www.w3.org/Graphics/SVG/1.1/DTD/svg11.dtd">
<svg version="1.1" id="Layer_1" xmlns="http://www.w3.org/2000/svg" xmlns:xlink="http://www.w3.org/1999/xlink" x="0px" y="0px"
	 viewBox="0 0 172.862 26" enable-background="new 0 0 172.862 26" xml:space="preserve">
<g>
	<path fill="#FFFFFF" d="M0,3.681
		l10.593-1.443l0.005,10.217L0.01,12.516L0,3.681z M10.588,13.633l0.008,10.227L0.008,22.404l-0.001-8.839L10.588,13.633z
		 M11.872,2.05L25.917,0v12.326l-14.045,0.112V2.05z M25.92,13.73L25.917,26l-14.045-1.983l-0.02-10.311L25.92,13.73z"/>
	<g>
		<path fill="#FFFFFF" d="M49.439,20.812h-1.814V10.363c0-0.825,0.05-1.836,0.152-3.03h-0.043c-0.174,0.702-0.33,1.206-0.467,1.51
			l-5.322,11.97h-0.891L35.743,8.929c-0.152-0.348-0.308-0.88-0.467-1.597h-0.043c0.058,0.623,0.087,1.64,0.087,3.052v10.427h-1.76
			V5.236h2.411l4.779,10.862c0.369,0.833,0.608,1.455,0.717,1.868h0.065c0.311-0.854,0.561-1.492,0.749-1.912l4.877-10.818h2.281
			V20.812z"/>
		<path fill="#FFFFFF" d="M53.207,6.866c-0.319,0-0.59-0.109-0.815-0.326c-0.224-0.217-0.337-0.492-0.337-0.825
			c0-0.333,0.112-0.61,0.337-0.831c0.224-0.221,0.496-0.331,0.815-0.331c0.326,0,0.603,0.111,0.831,0.331
			c0.228,0.221,0.342,0.498,0.342,0.831c0,0.319-0.114,0.59-0.342,0.815C53.81,6.753,53.533,6.866,53.207,6.866z M54.076,20.812
			h-1.781V9.69h1.781V20.812z"/>
		<path fill="#FFFFFF" d="M64.262,20.302c-0.854,0.514-1.868,0.771-3.041,0.771c-1.586,0-2.866-0.516-3.84-1.548
			c-0.974-1.032-1.461-2.37-1.461-4.014c0-1.832,0.525-3.304,1.575-4.415c1.05-1.112,2.451-1.667,4.204-1.667
			c0.978,0,1.839,0.181,2.585,0.543v1.825c-0.825-0.579-1.709-0.869-2.65-0.869c-1.137,0-2.069,0.407-2.797,1.222
			c-0.728,0.815-1.092,1.885-1.092,3.21c0,1.303,0.342,2.332,1.026,3.085c0.684,0.753,1.602,1.13,2.754,1.13
			c0.97,0,1.883-0.322,2.737-0.967V20.302z"/>
		<path fill="#FFFFFF" d="M71.755,11.493c-0.311-0.239-0.76-0.358-1.347-0.358c-0.76,0-1.396,0.358-1.906,1.075
			c-0.51,0.717-0.766,1.694-0.766,2.933v5.67h-1.781V9.69h1.781v2.292h0.043c0.253-0.782,0.641-1.392,1.162-1.83
			c0.521-0.438,1.104-0.657,1.749-0.657c0.463,0,0.818,0.051,1.064,0.152V11.493z"/>
		<path fill="#FFFFFF" d="M77.488,21.073c-1.644,0-2.956-0.519-3.937-1.559c-0.981-1.039-1.472-2.417-1.472-4.133
			c0-1.868,0.511-3.327,1.531-4.377c1.021-1.05,2.401-1.575,4.139-1.575c1.658,0,2.953,0.511,3.883,1.532
			c0.93,1.021,1.396,2.437,1.396,4.247c0,1.774-0.502,3.195-1.504,4.263C80.52,20.539,79.175,21.073,77.488,21.073z M77.618,10.928
			c-1.144,0-2.049,0.389-2.715,1.168c-0.666,0.778-0.999,1.852-0.999,3.22c0,1.318,0.337,2.357,1.01,3.117
			c0.674,0.761,1.575,1.141,2.705,1.141c1.151,0,2.037-0.373,2.656-1.119c0.619-0.745,0.929-1.806,0.929-3.182
			c0-1.39-0.309-2.462-0.929-3.215C79.655,11.304,78.77,10.928,77.618,10.928z"/>
		<path fill="#FFFFFF" d="M84.199,20.411v-1.912c0.97,0.716,2.038,1.075,3.204,1.075c1.564,0,2.346-0.521,2.346-1.564
			c0-0.297-0.067-0.548-0.201-0.755c-0.134-0.206-0.315-0.389-0.543-0.548c-0.228-0.159-0.496-0.302-0.804-0.429
			c-0.308-0.127-0.639-0.259-0.994-0.396c-0.492-0.196-0.925-0.393-1.298-0.592c-0.373-0.199-0.684-0.424-0.934-0.673
			c-0.25-0.25-0.438-0.534-0.565-0.853c-0.127-0.318-0.19-0.691-0.19-1.119c0-0.521,0.119-0.983,0.359-1.385
			c0.239-0.402,0.557-0.739,0.956-1.01c0.398-0.272,0.853-0.476,1.363-0.614c0.511-0.137,1.037-0.206,1.58-0.206
			c0.963,0,1.825,0.167,2.585,0.5v1.803c-0.818-0.536-1.76-0.804-2.824-0.804c-0.333,0-0.634,0.038-0.902,0.114
			c-0.268,0.076-0.498,0.183-0.689,0.321c-0.192,0.138-0.341,0.302-0.446,0.494c-0.105,0.192-0.157,0.404-0.157,0.635
			c0,0.29,0.053,0.532,0.157,0.728c0.105,0.196,0.259,0.369,0.462,0.521c0.202,0.152,0.449,0.29,0.739,0.413
			c0.289,0.123,0.619,0.257,0.988,0.402c0.492,0.188,0.934,0.382,1.325,0.581c0.391,0.199,0.724,0.423,0.999,0.673
			c0.275,0.25,0.487,0.537,0.635,0.863c0.148,0.326,0.223,0.713,0.223,1.162c0,0.55-0.122,1.028-0.364,1.434
			c-0.243,0.406-0.567,0.742-0.972,1.01s-0.873,0.467-1.401,0.597c-0.529,0.13-1.083,0.196-1.662,0.196
			C86.031,21.073,85.039,20.852,84.199,20.411z"/>
		<path fill="#FFFFFF" d="M97.959,21.073c-1.644,0-2.956-0.519-3.937-1.559c-0.981-1.039-1.472-2.417-1.472-4.133
			c0-1.868,0.511-3.327,1.531-4.377c1.021-1.05,2.401-1.575,4.139-1.575c1.658,0,2.953,0.511,3.883,1.532
			c0.93,1.021,1.396,2.437,1.396,4.247c0,1.774-0.502,3.195-1.504,4.263C100.992,20.539,99.647,21.073,97.959,21.073z M98.09,10.928
			c-1.144,0-2.049,0.389-2.715,1.168c-0.666,0.778-0.999,1.852-0.999,3.22c0,1.318,0.337,2.357,1.01,3.117
			c0.674,0.761,1.575,1.141,2.705,1.141c1.151,0,2.037-0.373,2.656-1.119c0.619-0.745,0.929-1.806,0.929-3.182
			c0-1.39-0.309-2.462-0.929-3.215C100.127,11.304,99.241,10.928,98.09,10.928z"/>
		<path fill="#FFFFFF" d="M110.438,5.91c-0.348-0.196-0.742-0.293-1.184-0.293c-1.246,0-1.868,0.786-1.868,2.357V9.69h2.607v1.521
			h-2.607v9.602h-1.771V11.21h-1.901V9.69h1.901V7.887c0-1.166,0.337-2.087,1.01-2.764c0.674-0.677,1.513-1.016,2.52-1.016
			c0.543,0,0.974,0.065,1.293,0.196V5.91z"/>
		<path fill="#FFFFFF" d="M116.464,20.704c-0.42,0.232-0.974,0.348-1.662,0.348c-1.948,0-2.922-1.086-2.922-3.259V11.21h-1.912V9.69
			h1.912V6.974l1.781-0.576V9.69h2.802v1.521h-2.802v6.267c0,0.746,0.127,1.278,0.38,1.597c0.253,0.319,0.673,0.478,1.26,0.478
			c0.449,0,0.837-0.123,1.162-0.369V20.704z"/>
		<path fill="#FFFFFF" d="M135.23,20.812h-2.02l-1.651-4.366h-6.604l-1.553,4.366h-2.031l5.974-15.576h1.89L135.23,20.812z
			 M130.961,14.805l-2.444-6.636c-0.08-0.217-0.159-0.565-0.239-1.043h-0.043c-0.072,0.442-0.156,0.789-0.25,1.043l-2.422,6.636
			H130.961z"/>
		<path fill="#FFFFFF" d="M144.816,10.2l-6.582,9.091h6.517v1.521h-9.135v-0.554l6.583-9.048h-5.963V9.69h8.581V10.2z"/>
		<path fill="#FFFFFF" d="M155.111,20.812h-1.781v-1.76h-0.043c-0.739,1.347-1.883,2.02-3.432,2.02c-2.65,0-3.975-1.579-3.975-4.736
			V9.69h1.771v6.365c0,2.346,0.898,3.519,2.694,3.519c0.869,0,1.584-0.321,2.145-0.961c0.561-0.641,0.842-1.479,0.842-2.515V9.69
			h1.781V20.812z"/>
		<path fill="#FFFFFF" d="M162.838,11.493c-0.311-0.239-0.76-0.358-1.347-0.358c-0.76,0-1.396,0.358-1.906,1.075
			c-0.51,0.717-0.766,1.694-0.766,2.933v5.67h-1.781V9.69h1.781v2.292h0.043c0.253-0.782,0.641-1.392,1.162-1.83
			c0.521-0.438,1.104-0.657,1.749-0.657c0.463,0,0.818,0.051,1.064,0.152V11.493z"/>
		<path fill="#FFFFFF" d="M172.862,15.696h-7.853c0.029,1.238,0.362,2.194,0.999,2.868c0.637,0.674,1.513,1.01,2.629,1.01
			c1.253,0,2.404-0.413,3.454-1.238v1.673c-0.978,0.71-2.27,1.064-3.878,1.064c-1.571,0-2.806-0.505-3.704-1.515
			c-0.898-1.01-1.347-2.431-1.347-4.263c0-1.731,0.49-3.141,1.472-4.231c0.981-1.09,2.199-1.635,3.655-1.635
			s2.581,0.471,3.378,1.412c0.796,0.941,1.194,2.248,1.194,3.921V15.696z M171.037,14.187c-0.007-1.028-0.255-1.828-0.744-2.4
			c-0.489-0.572-1.168-0.858-2.037-0.858c-0.84,0-1.553,0.301-2.14,0.902c-0.587,0.601-0.949,1.387-1.086,2.357H171.037z"/>
	</g>
</g>
</svg>
