<?xml version="1.0" encoding="utf-8"?>
<!-- Generator: Adobe Illustrator 16.0.0, SVG Export Plug-In . SVG Version: 6.00 Build 0)  -->
<!DOCTYPE svg PUBLIC "-//W3C//DTD SVG 1.1//EN" "http://www.w3.org/Graphics/SVG/1.1/DTD/svg11.dtd">
<svg version="1.1" id="Layer_1" xmlns="http://www.w3.org/2000/svg" xmlns:xlink="http://www.w3.org/1999/xlink" x="0px" y="0px"
	 width="24px" height="24px" viewBox="0 0 24 24" enable-background="new 0 0 24 24" xml:space="preserve">
<g>
	<g>
		<path fill="#666666" d="M18.486,19.32h-14.5c-0.185,0-0.358-0.09-0.465-0.241s-0.134-0.345-0.072-0.519l3-8.5
			c0.081-0.228,0.296-0.38,0.538-0.38h14.5c0.185,0,0.358,0.089,0.465,0.241c0.107,0.151,0.134,0.344,0.072,0.519l-3,8.5
			C18.943,19.168,18.728,19.32,18.486,19.32z M4.792,18.18h13.291l2.598-7.36H7.39L4.792,18.18z"/>
	</g>
	<g>
		<path fill="#666666" d="M18.486,19.32h-14.5c-0.315,0-0.57-0.256-0.57-0.57V5.25c0-0.315,0.255-0.57,0.57-0.57h6.25
			c0.315,0,0.57,0.255,0.57,0.57v1.93h7.68c0.314,0,0.57,0.255,0.57,0.57v2.359c0,0.315-0.256,0.57-0.57,0.57s-0.57-0.255-0.57-0.57
			V8.32h-7.68c-0.315,0-0.57-0.255-0.57-0.57V5.82h-5.11v12.36h13.93c0.314,0,0.57,0.256,0.57,0.57S18.801,19.32,18.486,19.32z"/>
	</g>
</g>
</svg>
