<?xml version="1.0" encoding="utf-8"?>
<!-- Generator: Adobe Illustrator 16.0.0, SVG Export Plug-In . SVG Version: 6.00 Build 0)  -->
<!DOCTYPE svg PUBLIC "-//W3C//DTD SVG 1.1//EN" "http://www.w3.org/Graphics/SVG/1.1/DTD/svg11.dtd">
<svg version="1.1" id="Layer_1" xmlns="http://www.w3.org/2000/svg" xmlns:xlink="http://www.w3.org/1999/xlink" x="0px" y="0px"
	 width="24px" height="24px" viewBox="0 0 24 24" enable-background="new 0 0 24 24" xml:space="preserve">
<g>
	<g>
		<g>
			<path fill="#666666" d="M18.983,14.426c-0.048,0-0.098-0.007-0.146-0.02c-0.305-0.081-0.485-0.394-0.404-0.697
				c0.805-3.022-0.565-6.151-3.332-7.61s-6.123-0.82-8.162,1.551C6.735,7.889,6.374,7.917,6.135,7.71
				C5.896,7.505,5.87,7.145,6.075,6.906c2.386-2.776,6.316-3.524,9.557-1.816c3.24,1.709,4.845,5.374,3.902,8.912
				C19.466,14.257,19.235,14.426,18.983,14.426z"/>
		</g>
		<g>
			<path fill="#666666" d="M12.001,19.818c-1.238,0.001-2.49-0.297-3.653-0.91c-3.24-1.708-4.844-5.372-3.902-8.911
				c0.081-0.305,0.396-0.483,0.697-0.404c0.304,0.081,0.485,0.393,0.404,0.697c-0.805,3.022,0.565,6.151,3.332,7.61
				c2.765,1.457,6.12,0.821,8.161-1.55c0.205-0.239,0.565-0.266,0.804-0.06c0.238,0.205,0.266,0.564,0.06,0.804
				C16.374,18.873,14.21,19.818,12.001,19.818z"/>
		</g>
	</g>
	<g>
		<path fill="#666666" d="M19.104,15.055c-0.146,0-0.292-0.056-0.403-0.167l-2.076-2.077c-0.223-0.223-0.223-0.583,0-0.806
			c0.223-0.222,0.584-0.222,0.807,0l1.673,1.674l1.675-1.674c0.223-0.222,0.584-0.222,0.807,0s0.223,0.584,0,0.806l-2.078,2.077
			C19.396,14.999,19.25,15.055,19.104,15.055z"/>
	</g>
	<g>
		<path fill="#666666" d="M6.972,11.954c-0.146,0-0.292-0.056-0.403-0.167l-1.673-1.674L3.22,11.788
			c-0.223,0.222-0.583,0.222-0.806,0c-0.222-0.223-0.222-0.583,0-0.806l2.078-2.077C4.6,8.797,4.744,8.737,4.896,8.737l0,0
			c0.151,0,0.296,0.06,0.403,0.167l2.076,2.077c0.222,0.223,0.222,0.583,0,0.806C7.263,11.898,7.118,11.954,6.972,11.954z"/>
	</g>
</g>
</svg>
