<?xml version="1.0" encoding="utf-8"?>
<!-- Generator: Adobe Illustrator 16.0.0, SVG Export Plug-In . SVG Version: 6.00 Build 0)  -->
<!DOCTYPE svg PUBLIC "-//W3C//DTD SVG 1.1//EN" "http://www.w3.org/Graphics/SVG/1.1/DTD/svg11.dtd">
<svg version="1.1" id="Layer_1" xmlns="http://www.w3.org/2000/svg" xmlns:xlink="http://www.w3.org/1999/xlink" x="0px" y="0px"
	 width="24px" height="24px" viewBox="0 0 24 24" enable-background="new 0 0 24 24" xml:space="preserve">
<g>
	<g>
		<path fill="#666666" d="M14.938,19.359H4.556c-1.195,0-2.167-0.974-2.167-2.17V6.811c0-1.197,0.972-2.171,2.167-2.171h10.382
			c1.196,0,2.17,0.974,2.17,2.171v6.675c0,0.314-0.256,0.57-0.57,0.57s-0.57-0.256-0.57-0.57V6.811c0-0.568-0.462-1.031-1.029-1.031
			H4.556c-0.567,0-1.028,0.463-1.028,1.031v10.378c0,0.567,0.461,1.029,1.028,1.029h10.382c0.567,0,1.029-0.462,1.029-1.029
			c0-0.314,0.256-0.57,0.57-0.57s0.57,0.256,0.57,0.57C17.107,18.386,16.134,19.359,14.938,19.359z"/>
	</g>
	<g>
		<path fill="#666666" d="M12.232,11.772H7.431c-1.195,0-2.167-0.973-2.167-2.169V5.21h1.14v4.393c0,0.568,0.461,1.03,1.028,1.03
			h4.802c0.567,0,1.029-0.462,1.029-1.03V5.21h1.141v4.393C14.402,10.799,13.429,11.772,12.232,11.772z"/>
	</g>
</g>
<g>
	<g>
		<path fill="#666666" d="M21.16,16.096H9.726c-0.315,0-0.57-0.256-0.57-0.57s0.255-0.57,0.57-0.57H21.16
			c0.314,0,0.57,0.256,0.57,0.57S21.475,16.096,21.16,16.096z"/>
	</g>
	<g>
		<path fill="#666666" d="M19.219,18.703c-0.146,0-0.292-0.056-0.403-0.167c-0.223-0.223-0.223-0.584,0-0.807l2.607-2.607
			c0.223-0.223,0.584-0.223,0.807,0s0.223,0.584,0,0.807l-2.607,2.607C19.511,18.647,19.364,18.703,19.219,18.703z"/>
	</g>
	<g>
		<path fill="#666666" d="M21.826,16.096c-0.146,0-0.292-0.056-0.403-0.167l-2.607-2.607c-0.223-0.223-0.223-0.584,0-0.807
			c0.223-0.222,0.584-0.222,0.807,0l2.607,2.607c0.223,0.223,0.223,0.584,0,0.807C22.118,16.04,21.972,16.096,21.826,16.096z"/>
	</g>
</g>
</svg>
