<?xml version="1.0" encoding="utf-8"?>
<!-- Generator: Adobe Illustrator 16.0.0, SVG Export Plug-In . SVG Version: 6.00 Build 0)  -->
<!DOCTYPE svg PUBLIC "-//W3C//DTD SVG 1.1//EN" "http://www.w3.org/Graphics/SVG/1.1/DTD/svg11.dtd">
<svg version="1.1" id="Layer_1" xmlns="http://www.w3.org/2000/svg" xmlns:xlink="http://www.w3.org/1999/xlink" x="0px" y="0px"
	 width="24px" height="24px" viewBox="0 0 24 24" enable-background="new 0 0 24 24" xml:space="preserve">
<g>
	<g>
		<path fill="#666666" d="M17.19,19.36H6.81c-1.196,0-2.169-0.974-2.169-2.17V6.81c0-1.196,0.973-2.169,2.169-2.169H17.19
			c1.196,0,2.17,0.973,2.17,2.169V17.19C19.36,18.387,18.387,19.36,17.19,19.36z M6.81,5.78c-0.568,0-1.03,0.462-1.03,1.03V17.19
			c0,0.567,0.462,1.029,1.03,1.029H17.19c0.567,0,1.029-0.462,1.029-1.029V6.81c0-0.568-0.462-1.03-1.029-1.03H6.81z"/>
	</g>
	<g>
		<path fill="#666666" d="M14.485,11.772H9.685c-1.196,0-2.169-0.973-2.169-2.169V5.21h1.14v4.393c0,0.568,0.462,1.03,1.03,1.03
			h4.801c0.567,0,1.029-0.462,1.029-1.03V5.21h1.141v4.393C16.655,10.799,15.682,11.772,14.485,11.772z"/>
	</g>
	<g>
		<path fill="#666666" d="M15.397,16.429c-0.314,0-0.57-0.256-0.57-0.57V13.88c0-0.314,0.256-0.57,0.57-0.57s0.57,0.256,0.57,0.57
			v1.979C15.968,16.173,15.712,16.429,15.397,16.429z"/>
	</g>
</g>
</svg>
