<?xml version="1.0" encoding="utf-8"?>
<!-- Generator: Adobe Illustrator 16.0.0, SVG Export Plug-In . SVG Version: 6.00 Build 0)  -->
<!DOCTYPE svg PUBLIC "-//W3C//DTD SVG 1.1//EN" "http://www.w3.org/Graphics/SVG/1.1/DTD/svg11.dtd">
<svg version="1.1" id="Layer_1" xmlns="http://www.w3.org/2000/svg" xmlns:xlink="http://www.w3.org/1999/xlink" x="0px" y="0px"
	 width="24px" height="24px" viewBox="0 0 24 24" enable-background="new 0 0 24 24" xml:space="preserve">
<path fill="#666666" d="M17.176,13.77c1.928-1.889,1.928-4.951,0-6.84c-1.93-1.887-5.055-1.887-6.981,0
	c-1.662,1.627-1.889,4.123-0.688,5.992l-3.969,3.885c-0.213,0.211-0.213,0.551,0,0.76l0.777,0.762c0.213,0.209,0.561,0.209,0.775,0
	l3.967-3.887C12.967,15.617,15.514,15.395,17.176,13.77 M11.357,12.629c-1.285-1.258-1.285-3.299,0-4.559
	c1.286-1.258,3.37-1.258,4.655,0c1.285,1.26,1.285,3.301,0,4.559S12.643,13.887,11.357,12.629"/>
</svg>
